<?xml version="1.0" standalone="no"?>
<!DOCTYPE svg PUBLIC "-//W3C//DTD SVG 20010904//EN"
 "http://www.w3.org/TR/2001/REC-SVG-20010904/DTD/svg10.dtd">
<svg version="1.0" xmlns="http://www.w3.org/2000/svg"
 width="300.000000pt" height="300.000000pt" viewBox="0 0 300.000000 300.000000"
 preserveAspectRatio="xMidYMid meet">
<metadata>
Created by potrace 1.14, written by Peter Selinger 2001-2017
</metadata>
<g transform="translate(0.000000,300.000000) scale(0.100000,-0.100000)"
fill="#000000" stroke="none">
<path d="M1335 2794 c-77 -46 -174 -103 -215 -127 -41 -24 -243 -142 -447
-261 l-373 -218 4 -682 c3 -374 5 -686 5 -692 1 -9 108 -75 281 -171 19 -11
119 -68 222 -127 l188 -108 29 21 c16 12 31 21 34 21 3 0 63 34 134 76 70 42
146 86 168 99 22 12 141 82 265 155 124 72 243 142 265 155 36 20 180 104 245
143 l26 15 -1 328 c0 188 -4 329 -9 329 -5 0 -180 -100 -389 -223 -209 -122
-399 -233 -421 -246 -23 -13 -164 -95 -315 -184 -293 -171 -312 -178 -358
-135 -56 51 -56 54 -59 563 -3 442 -3 472 15 500 12 20 67 58 162 114 235 137
312 183 344 202 17 10 37 22 45 26 17 8 307 177 330 193 8 6 21 13 29 17 8 3
66 37 129 74 l114 67 -94 54 c-173 102 -185 108 -199 107 -8 -1 -77 -39 -154
-85z"/>
<path d="M1840 2499 c-85 -50 -175 -103 -200 -117 -25 -14 -61 -35 -80 -47
-19 -12 -55 -33 -80 -47 -25 -14 -119 -69 -210 -123 -91 -54 -227 -134 -303
-178 l-137 -81 0 -333 c1 -183 3 -333 6 -333 5 0 202 114 449 260 77 45 154
90 170 100 36 21 454 264 495 288 188 111 299 172 314 172 31 0 74 -29 96 -65
22 -36 22 -40 24 -498 1 -254 0 -474 -2 -490 -2 -15 -14 -37 -27 -49 -19 -18
-160 -104 -301 -184 -58 -32 -828 -485 -832 -489 -2 -1 62 -39 142 -84 l144
-82 57 33 c31 18 64 38 73 43 82 49 173 103 203 120 20 11 222 128 448 260
l411 240 -4 695 c-2 382 -8 696 -12 697 -5 2 -154 86 -332 187 -177 102 -330
187 -340 190 -10 3 -76 -29 -172 -85z"/>
</g>
</svg>
