<svg xmlns="http://www.w3.org/2000/svg" xmlns:xlink="http://www.w3.org/1999/xlink" width="200" zoomAndPan="magnify" viewBox="0 0 150 149.999998" height="200" preserveAspectRatio="xMidYMid meet" version="1.0"><defs><clipPath id="0dba3ca610"><path d="M 41 20 L 135 20 L 135 144.164062 L 41 144.164062 Z M 41 20 " clip-rule="nonzero"/></clipPath><clipPath id="1e7f65e125"><path d="M 15 6.164062 L 109 6.164062 L 109 130 L 15 130 Z M 15 6.164062 " clip-rule="nonzero"/></clipPath></defs><g clip-path="url(#0dba3ca610)"><path fill="#2d52a4" d="M 84.289062 29.699219 C 84.289062 29.699219 84.289062 29.703125 84.289062 29.703125 L 41.519531 54.78125 C 41.511719 54.785156 41.507812 54.792969 41.507812 54.796875 L 41.636719 88.300781 C 41.636719 88.316406 41.652344 88.324219 41.664062 88.316406 L 46.023438 85.769531 L 98.414062 55.160156 L 111.125 47.734375 C 113.320312 46.453125 115.921875 47.605469 117.46875 49.398438 C 118.941406 51.105469 119.113281 53.136719 119.125 55.277344 C 119.167969 63.480469 119.160156 71.6875 119.175781 79.894531 C 119.1875 86.109375 119.203125 92.324219 119.214844 98.542969 C 119.21875 100.351562 118.339844 101.957031 116.984375 102.953125 C 116.984375 102.964844 116.984375 102.980469 116.984375 102.992188 L 116.390625 103.339844 L 106.050781 109.378906 L 101.78125 111.875 L 70.980469 129.867188 L 60.835938 135.796875 L 75.355469 144.078125 L 135 109.230469 L 134.648438 40.152344 L 100.117188 20.453125 L 84.289062 29.699219 " fill-opacity="1" fill-rule="nonzero"/></g><g clip-path="url(#1e7f65e125)"><path fill="#377dff" d="M 65.578125 120.375 C 65.578125 120.375 65.582031 120.375 65.585938 120.371094 L 108.28125 95.429688 C 108.285156 95.425781 108.289062 95.417969 108.289062 95.414062 L 108.21875 62.113281 C 108.21875 62.097656 108.203125 62.089844 108.191406 62.097656 L 103.921875 64.589844 L 51.53125 95.199219 L 38.824219 102.621094 C 35.957031 104.296875 33.585938 102.617188 32.171875 100.1875 C 31.253906 98.613281 30.738281 96.722656 30.742188 95.222656 C 30.765625 87.042969 30.679688 78.859375 30.648438 70.679688 C 30.625 64.347656 30.601562 58.019531 30.578125 51.6875 C 30.570312 49.648438 31.679688 47.867188 33.335938 46.921875 C 33.355469 46.910156 33.375 46.898438 33.394531 46.886719 L 34.195312 46.417969 C 34.195312 46.382812 34.195312 46.351562 34.195312 46.320312 L 45.117188 39.9375 L 49.476562 37.390625 L 89.164062 14.203125 L 74.644531 5.921875 L 15 40.769531 L 15.351562 109.847656 L 49.882812 129.546875 L 65.578125 120.375 " fill-opacity="1" fill-rule="nonzero"/></g></svg>